<?xml version="1.0" encoding="utf-8"?>
<!-- Generator: Adobe Illustrator 19.0.0, SVG Export Plug-In . SVG Version: 6.00 Build 0)  -->
<svg version="1.1" xmlns="http://www.w3.org/2000/svg" xmlns:xlink="http://www.w3.org/1999/xlink" x="0px" y="0px"
	 viewBox="115 99.7 841.9 595.3" style="enable-background:new 115 99.7 841.9 595.3;" xml:space="preserve">
<style type="text/css">
	.st0{fill:#424254;}
	.st1{fill:none;stroke:#EACCA6;stroke-miterlimit:10;}
	.st2{fill:none;}
	.st3{fill:#65918C;}
	.st4{font-family:'Helvetica';}
	.st5{font-size:12.6069px;}
	.st6{fill:#EACCA6;}
	.st7{font-size:13.8676px;}
	.st8{fill:#FFFFFF;stroke:#CE2742;stroke-width:2;stroke-linecap:square;stroke-miterlimit:10;}
	.st9{font-size:12px;}
	.st10{fill:#CE2742;}
	.st11{opacity:0;fill:#FFFFFF;}
	.st12{fill:none;stroke:#33162F;stroke-linecap:square;stroke-miterlimit:10;}
	.st13{fill:none;stroke:#33162F;stroke-linecap:square;stroke-miterlimit:10;stroke-dasharray:1.0023,3.0068;}
	.st14{font-size:16px;}
	.st15{fill:#CE2742;stroke:#33162F;stroke-linecap:square;stroke-miterlimit:10;}
	.st16{font-size:37.8208px;}
</style>
<g id="background-container">
	<rect id="background" x="115" y="99.7" class="st0" width="841.9" height="595.3"/>
</g>
<g id="timeline-label-template">
	<line id="date-line" class="st1" x1="907.7" y1="197.1" x2="907.7" y2="172"/>
	
		<rect id="XMLID_5_" x="879" y="233" transform="matrix(0.7071 0.7071 -0.7071 0.7071 435.3543 -570.8441)" class="st2" width="55.6" height="14.2"/>
	<text id="date-value" transform="matrix(0.7071 0.7071 -0.7071 0.7071 885.6998 221.8248)" class="st3 st4 st5">21 March</text>
	
		<rect id="XMLID_63_" x="893.4" y="215.5" transform="matrix(0.7071 0.7071 -0.7071 0.7071 425.7126 -580.4012)" class="st2" width="40" height="16.3"/>
	<text id="date-label" transform="matrix(0.7071 0.7071 -0.7071 0.7071 898.025 210.7984)" class="st6 st4 st7">Today</text>
</g>
<g id="interactive-seeker-template">
	<g id="interactive-seeker-indicator">
		<line id="seeker-line" class="st8" x1="340.6" y1="199.4" x2="340.6" y2="174.3"/>
		<rect x="306" y="155.5" class="st2" width="69.3" height="13.6"/>
		<text id="seeker-date" transform="matrix(1 0 0 1 312.2725 164.1133)" class="st6 st4 st9">21 Mar ‘15</text>
		<polyline class="st10" points="347.2,169.7 340.6,176.2 334.1,169.7 		"/>
	</g>
	<rect id="interactive-trigger" x="341.1" y="185.7" class="st11" width="566.1" height="30"/>
</g>
<g id="student-row-template">
	<g>
		<g id="XMLID_1_">
			<line id="XMLID_4_" class="st12" x1="115" y1="185.7" x2="115.5" y2="185.7"/>
			<line id="XMLID_3_" class="st13" x1="118.5" y1="185.7" x2="954.9" y2="185.7"/>
			<line id="XMLID_2_" class="st12" x1="956.4" y1="185.7" x2="956.9" y2="185.7"/>
		</g>
	</g>
	<text id="student-name" transform="matrix(1 0 0 1 152.9999 189.751)" class="st6 st4 st14">Andreas Stocker</text>
</g>
<g id="mark-template">
	<polygon id="mark" class="st15" points="338,192 334.4,185.7 338,179.5 345.2,179.5 348.8,185.7 345.2,192 	"/>
</g>
<g id="course-banner-template">
	<polygon class="st10" points="956.9,99.7 424.7,99.7 410.6,99.7 166.8,99.7 152.7,99.7 115.5,99.7 115,129.2 152.7,129.2 
		166.8,144.7 410.6,144.7 424.7,129.2 956.9,129.2 	"/>
	<rect x="163" y="108.1" class="st2" width="269" height="28.2"/>
	<text id="course-name" transform="matrix(1 0 0 1 202.9297 135.2822)" class="st6 st4 st16">COMP-114</text>
</g>
<g id="guides">
	<line id="mark-domain" class="st2" x1="340.6" y1="185.7" x2="907.7" y2="185.7"/>
</g>
</svg>
