<?xml version="1.0" encoding="utf-8"?>
<!-- Generator: Adobe Illustrator 19.1.0, SVG Export Plug-In . SVG Version: 6.00 Build 0)  -->
<svg version="1.1" xmlns="http://www.w3.org/2000/svg" xmlns:xlink="http://www.w3.org/1999/xlink" x="0px" y="0px"
	 viewBox="115 99.7 841.9 595.3" style="enable-background:new 115 99.7 841.9 595.3;" xml:space="preserve">
<style type="text/css">
	.st0{fill:#424254;}
	.st1{fill:none;stroke:#EACCA6;stroke-miterlimit:10;}
	.st2{fill:none;}
	.st3{fill:#65918C;}
	.st4{font-family:'ArialMT';}
	.st5{font-size:12.6069px;}
	.st6{fill:#EACCA6;}
	.st7{font-size:13.8676px;}
	.st8{fill:none;stroke:#33162F;stroke-linecap:square;stroke-miterlimit:10;}
	.st9{fill:none;stroke:#33162F;stroke-linecap:square;stroke-miterlimit:10;stroke-dasharray:1.0023,3.0068;}
	.st10{font-size:16px;}
	.st11{fill:#CE2742;stroke:#33162F;stroke-linecap:square;stroke-miterlimit:10;}
	.st12{fill:#CE2742;}
	.st13{font-size:37.8208px;}
</style>
<g id="background-container">
	<rect id="background" x="115" y="99.7" class="st0" width="841.9" height="595.3"/>
</g>
<g id="timeline-label-template">
	<line id="date-line" class="st1" x1="907.7" y1="218.1" x2="907.7" y2="193"/>
	
		<rect id="XMLID_5_" x="879" y="254" transform="matrix(0.7071 0.7071 -0.7071 0.7071 450.1759 -564.7047)" class="st2" width="55.6" height="14.2"/>
	<text id="date-value" transform="matrix(0.7071 0.7071 -0.7071 0.7071 885.6998 242.7847)" class="st3 st4 st5">21 March</text>
	
		<rect id="XMLID_63_" x="893.4" y="236.5" transform="matrix(0.7071 0.7071 -0.7071 0.7071 440.5343 -574.2618)" class="st2" width="40" height="16.3"/>
	<text id="date-label" transform="matrix(0.7071 0.7071 -0.7071 0.7071 898.025 231.7584)" class="st6 st4 st7">Today</text>
</g>
<g id="student-row-template">
	<g>
		<g id="XMLID_18_">
			<line id="XMLID_21_" class="st8" x1="115" y1="206.7" x2="115.5" y2="206.7"/>
			<line id="XMLID_20_" class="st9" x1="118.5" y1="206.7" x2="954.9" y2="206.7"/>
			<line id="XMLID_19_" class="st8" x1="956.4" y1="206.7" x2="956.9" y2="206.7"/>
		</g>
	</g>
	<text id="student-name" transform="matrix(1 0 0 1 152.9999 210.712)" class="st6 st4 st10">Andreas Stocker</text>
</g>
<g id="mark-template">
	<polygon id="mark" class="st11" points="337,212.9 333.4,206.7 337,200.4 344.2,200.4 347.8,206.7 344.2,212.9 	"/>
</g>
<g id="course-banner-template">
	<polygon id="XMLID_10_" class="st12" points="166.8,165.7 146.4,143.2 166.8,120.7 410.6,120.7 431,143.2 410.6,165.7 	"/>
	<rect id="XMLID_26_" x="115" y="136.2" class="st12" width="841.9" height="13.9"/>
	<text id="course-name" transform="matrix(1 0 0 1 193.7559 156.4041)" class="st6 st4 st13">COMP-114</text>
</g>
</svg>
