<?xml version="1.0" encoding="utf-8"?>
<!-- Generator: Adobe Illustrator 19.0.0, SVG Export Plug-In . SVG Version: 6.00 Build 0)  -->
<svg version="1.1" xmlns="http://www.w3.org/2000/svg" xmlns:xlink="http://www.w3.org/1999/xlink" x="0px" y="0px"
	 viewBox="-223 695 841.9 595.3" style="enable-background:new -223 695 841.9 595.3;" xml:space="preserve">
<style type="text/css">
	.st0{fill:#424254;}
	.st1{fill:none;stroke:#EACCA6;stroke-miterlimit:10;}
	.st2{fill:none;}
	.st3{fill:#65918C;}
	.st4{font-family:'Helvetica';}
	.st5{font-size:12.6069px;}
	.st6{fill:#EACCA6;}
	.st7{font-size:13.8676px;}
	.st8{fill:#FFFFFF;stroke:#CE2742;stroke-width:2;stroke-linecap:square;stroke-miterlimit:10;}
	.st9{font-size:12px;}
	.st10{fill:#CE2742;}
	.st11{opacity:0;fill:#FFFFFF;}
	.st12{fill:none;stroke:#33162F;stroke-linecap:square;stroke-miterlimit:10;}
	.st13{fill:none;stroke:#33162F;stroke-linecap:square;stroke-miterlimit:10;stroke-dasharray:1.0023,3.0068;}
	.st14{font-size:16px;}
	.st15{fill:#CE2742;stroke:#33162F;stroke-linecap:square;stroke-miterlimit:10;}
	.st16{font-size:37.8208px;}
</style>
<g id="background-container">
	<rect id="background" x="-223" y="695" class="st0" width="841.9" height="595.3"/>
</g>
<g id="timeline-label-template">
	<line id="date-line_2_" class="st1" x1="569.7" y1="792.4" x2="569.7" y2="767.3"/>
	
		<rect id="XMLID_12_" x="541" y="828.3" transform="matrix(0.7071 0.7071 -0.7071 0.7071 757.2829 -157.4884)" class="st2" width="55.6" height="14.2"/>
	<text id="date-value_2_" transform="matrix(0.7071 0.7071 -0.7071 0.7071 547.6998 817.1048)" class="st3 st4 st5">21 March</text>
	
		<rect id="XMLID_9_" x="555.4" y="810.8" transform="matrix(0.7071 0.7071 -0.7071 0.7071 747.6412 -167.0456)" class="st2" width="40" height="16.3"/>
	<text id="date-label_2_" transform="matrix(0.7071 0.7071 -0.7071 0.7071 560.025 806.0784)" class="st6 st4 st7">Today</text>
</g>
<g id="interactive-seeker-template">
	<g id="interactive-seeker-indicator">
		<line id="seeker-line" class="st8" x1="2.6" y1="794.7" x2="2.6" y2="769.6"/>
		<rect x="-32" y="750.8" class="st2" width="69.3" height="13.6"/>
		<text id="seeker-date" transform="matrix(1 0 0 1 -25.7276 759.3933)" class="st6 st4 st9">21 Mar ‘15</text>
		<polyline class="st10" points="9.2,765 2.6,771.5 -3.9,765 		"/>
	</g>
	<rect id="interactive-trigger_2_" x="3.1" y="781" class="st11" width="566.1" height="30"/>
</g>
<g id="student-row-template">
	<g>
		<g id="XMLID_1_">
			<line id="XMLID_4_" class="st12" x1="-223" y1="781" x2="-222.5" y2="781"/>
			<line id="XMLID_3_" class="st13" x1="-219.5" y1="781" x2="616.9" y2="781"/>
			<line id="XMLID_2_" class="st12" x1="618.4" y1="781" x2="618.9" y2="781"/>
		</g>
	</g>
	<text id="student-name" transform="matrix(1 0 0 1 -185.0001 785.031)" class="st6 st4 st14">Andreas Stocker</text>
</g>
<g id="mark-template">
	<polygon id="mark_2_" class="st15" points="0,787.2 -3.6,781 0,774.8 7.2,774.8 10.8,781 7.2,787.2 	"/>
	<polygon id="mark_1_" class="st15" points="-226.5,701 -230,695 -226.5,689 -219.5,689 -216,695 -219.5,701 	"/>
</g>
<g id="course-banner-template">
	<polygon class="st10" points="618.9,695 86.7,695 72.6,695 -171.2,695 -185.3,695 -222.5,695 -223,724.5 -185.3,724.5 -171.2,740 
		72.6,740 86.7,724.5 618.9,724.5 	"/>
	<rect x="-185" y="702.1" class="st2" width="271.3" height="28.2"/>
	<text id="course-name" transform="matrix(1 0 0 1 -143.9312 729.2285)" class="st6 st4 st16">COMP-114</text>
	<line class="st6" x1="-222.5" y1="695" x2="-223" y2="742"/>
</g>
<g id="guides">
	<line id="mark-domain_2_" class="st2" x1="2.6" y1="781" x2="569.7" y2="781"/>
</g>
</svg>
