<?xml version="1.0" encoding="utf-8"?>
<!-- Generator: Adobe Illustrator 19.1.0, SVG Export Plug-In . SVG Version: 6.00 Build 0)  -->
<svg version="1.1" id="Layer_1" xmlns="http://www.w3.org/2000/svg" xmlns:xlink="http://www.w3.org/1999/xlink" x="0px" y="0px"
	 viewBox="0 0 841.9 1030.1" style="enable-background:new 0 0 841.9 1030.1;" xml:space="preserve">
<style type="text/css">
	.st0{fill:#665743;}
	.st1{fill:#E5AC26;}
	.st2{fill:#81BCA4;}
	.st3{fill:#F5F5BF;}
	.st4{fill:#C04E28;}
	.st5{fill:none;}
	.st6{font-family:'MyriadPro-Regular';}
	.st7{font-size:33.0256px;}
	.st8{font-size:71.859px;}
	.st9{font-size:28.3077px;}
	.st10{font-size:37.7435px;}
	.st11{font-size:36px;}
	.st12{font-size:18.1471px;}
	.st13{font-size:50.1675px;}
	.st14{font-size:45px;}
	.st15{font-family:'Arial-BoldMT';}
	.st16{font-size:60px;}
</style>
<rect class="st0" width="841.9" height="1030.1"/>
<g>
	<ellipse class="st1" cx="435.8" cy="308.4" rx="23.5" ry="26.8"/>
	<path class="st1" d="M396.5,353.5c0-9.1,17.6-16.5,39.3-16.5c21.7,0,39.3,7.4,39.3,16.5"/>
	<rect x="426.2" y="326.5" class="st1" width="19.2" height="16"/>
</g>
<g>
	<ellipse class="st1" cx="345.2" cy="312.7" rx="21.3" ry="24.2"/>
	<path class="st1" d="M309.6,353.5c0-8.3,15.9-14.9,35.6-14.9c19.6,0,35.6,6.7,35.6,14.9"/>
	<rect x="336.5" y="329.1" class="st1" width="17.4" height="14.5"/>
</g>
<g>
	<ellipse class="st2" cx="253.7" cy="316" rx="19.6" ry="22.3"/>
	<path class="st2" d="M221,353.5c0-7.6,14.6-13.7,32.7-13.7s32.7,6.2,32.7,13.7"/>
	<rect x="245.7" y="331.1" class="st2" width="16" height="13.3"/>
</g>
<g>
	<ellipse class="st1" cx="164.6" cy="322.1" rx="16.4" ry="18.7"/>
	<path class="st1" d="M137.2,353.5c0-6.4,12.3-11.5,27.4-11.5c15.2,0,27.4,5.2,27.4,11.5"/>
	<rect x="157.9" y="334.7" class="st1" width="13.4" height="11.2"/>
</g>
<circle class="st0" cx="43.1" cy="-47.9" r="28.5"/>
<circle class="st2" cx="113.1" cy="-47.9" r="28.5"/>
<circle class="st3" cx="183.1" cy="-47.9" r="28.5"/>
<circle class="st1" cx="253.1" cy="-47.9" r="28.5"/>
<circle class="st4" cx="323.1" cy="-47.9" r="28.5"/>
<rect x="222.4" y="256.5" class="st5" width="62.7" height="29.9"/>
<text transform="matrix(1 0 0 1 226.6221 279.9564)" class="st2 st6 st7">You</text>
<rect x="490.3" y="292.6" class="st5" width="179.3" height="58.8"/>
<text transform="matrix(1 0 0 1 490.3116 343.6566)"><tspan x="0" y="0" class="st1 st6 st8">}</tspan><tspan x="20.4" y="0" class="st1 st6 st9"> Most Active</tspan><tspan x="165.1" y="0" class="st1 st6 st10"> </tspan></text>
<rect x="111.9" y="435.5" class="st5" width="207" height="30.9"/>
<text transform="matrix(1 0 0 1 111.9148 461.0789)" class="st3 st6 st11">Forum Posts</text>
<rect x="-41.9" y="310.2" class="st5" width="170.4" height="41.8"/>
<text transform="matrix(1 0 0 1 19.6651 345.7777)"><tspan x="0" y="0" class="st1 st6 st12">Least Active </tspan><tspan x="94.6" y="0" class="st1 st6 st13">{</tspan></text>
<polygon class="st3" points="1.1,994.9 545,848 545,746.5 1.1,893.1 "/>
<rect x="-10.8" y="852.4" transform="matrix(0.9659 -0.2588 0.2588 0.9659 -215.9934 100.7787)" class="st5" width="571" height="36.5"/>
<text transform="matrix(0.9659 -0.2588 0.2588 0.9659 61.5491 942.0065)" class="st4 st6 st14">ENGLISH COMPOSITION</text>
<polygon class="st3" points="4,289.2 547.9,142.3 547.9,40.8 4,187.3 "/>
<rect x="-7.9" y="146.7" transform="matrix(0.9659 -0.2588 0.2588 0.9659 -33.2392 77.4762)" class="st5" width="571" height="36.5"/>
<text transform="matrix(0.9659 -0.2588 0.2588 0.9659 64.425 236.2768)" class="st4 st6 st14">ENGLISH COMPOSITION</text>
<rect x="63.3" y="427.7" class="st5" width="33.6" height="46.5"/>
<text transform="matrix(1 0 0 1 63.526 470.6693)" class="st3 st15 st16">4</text>
<rect x="462.7" y="435.5" class="st5" width="207" height="30.9"/>
<text transform="matrix(1 0 0 1 462.7218 461.0789)" class="st3 st6 st11">Wiki Edit</text>
<rect x="414.1" y="427.7" class="st5" width="33.6" height="46.5"/>
<text transform="matrix(1 0 0 1 414.333 470.6693)" class="st3 st15 st16">1</text>
<rect x="547.9" y="40.8" class="st2" width="296.9" height="100.8"/>
</svg>
